<?xml version="1.0" encoding="UTF-8" standalone="no"?>
<!DOCTYPE svg PUBLIC "-//W3C//DTD SVG 1.1//EN"
 "http://www.w3.org/Graphics/SVG/1.1/DTD/svg11.dtd">
<!-- Generated by graphviz version 12.1.2 (0)
 -->
<!-- Title: Graph Legend Pages: 1 -->
<svg width="627pt" height="204pt"
 viewBox="0.00 0.00 627.32 204.28" xmlns="http://www.w3.org/2000/svg" xmlns:xlink="http://www.w3.org/1999/xlink">
<g id="graph0" class="graph" transform="scale(1 1) rotate(0) translate(4 200.28)">
<title>Graph Legend</title>
<!-- Node9 -->
<g id="Node000009" class="node">
<title>Node9</title>
<g id="a_Node000009"><a xlink:title=" ">
<ellipse fill="#999999" stroke="#666666" cx="326.32" cy="-14.14" rx="37.83" ry="14.14"/>
<text text-anchor="middle" x="326.32" y="-10.64" font-family="Helvetica,sans-Serif" font-size="10.00">Inherited</text>
</a>
</g>
</g>
<!-- Node10 -->
<g id="Node000010" class="node">
<title>Node10</title>
<g id="a_Node000010"><a xlink:title=" ">
<ellipse fill="white" stroke="#666666" cx="46.32" cy="-94.28" rx="46.32" ry="14.14"/>
<text text-anchor="middle" x="46.32" y="-90.78" font-family="Helvetica,sans-Serif" font-size="10.00">PublicBase</text>
</a>
</g>
</g>
<!-- Node10&#45;&gt;Node9 -->
<g id="edge1" class="edge">
<title>Node10&#45;&gt;Node9</title>
<g id="a_edge1"><a xlink:title=" ">
<path fill="none" stroke="#63b8ff" d="M88.61,-80.31C93.23,-78.93 97.87,-77.57 102.32,-76.28 171.46,-56.36 253.08,-34.49 296.17,-23.08"/>
<polygon fill="#63b8ff" stroke="#63b8ff" points="87.98,-76.84 79.41,-83.07 89.99,-83.55 87.98,-76.84"/>
</a>
</g>
</g>
<!-- Node11 -->
<g id="Node000011" class="node">
<title>Node11</title>
<g id="a_Node000011"><a xlink:title=" ">
<ellipse fill="#fff0f0" stroke="red" cx="46.32" cy="-178.28" rx="42.07" ry="14.14"/>
<text text-anchor="middle" x="46.32" y="-174.78" font-family="Helvetica,sans-Serif" font-size="10.00">Truncated</text>
</a>
</g>
</g>
<!-- Node11&#45;&gt;Node10 -->
<g id="edge2" class="edge">
<title>Node11&#45;&gt;Node10</title>
<g id="a_edge2"><a xlink:title=" ">
<path fill="none" stroke="#63b8ff" d="M46.32,-152.63C46.32,-138.28 46.32,-120.72 46.32,-108.85"/>
<polygon fill="#63b8ff" stroke="#63b8ff" points="42.82,-152.23 46.32,-162.23 49.82,-152.23 42.82,-152.23"/>
</a>
</g>
</g>
<!-- Node13 -->
<g id="node4" class="node">
<title>Node13</title>
<g id="a_node4"><a xlink:title=" ">
<ellipse fill="white" stroke="#666666" cx="159.32" cy="-94.28" rx="48.41" ry="18"/>
<text text-anchor="middle" x="159.32" y="-90.78" font-family="Helvetica,sans-Serif" font-size="10.00">ProtectedBase</text>
</a>
</g>
</g>
<!-- Node13&#45;&gt;Node9 -->
<g id="edge3" class="edge">
<title>Node13&#45;&gt;Node9</title>
<g id="a_edge3"><a xlink:title=" ">
<path fill="none" stroke="darkgreen" d="M198.51,-74.94C231.14,-59.68 276.47,-38.47 303.46,-25.84"/>
<polygon fill="darkgreen" stroke="darkgreen" points="197.35,-71.62 189.78,-79.03 200.32,-77.96 197.35,-71.62"/>
</a>
</g>
</g>
<!-- Node14 -->
<g id="node5" class="node">
<title>Node14</title>
<g id="a_node5"><a xlink:title=" ">
<ellipse fill="white" stroke="#666666" cx="267.32" cy="-94.28" rx="41.64" ry="18"/>
<text text-anchor="middle" x="267.32" y="-90.78" font-family="Helvetica,sans-Serif" font-size="10.00">PrivateBase</text>
</a>
</g>
</g>
<!-- Node14&#45;&gt;Node9 -->
<g id="edge4" class="edge">
<title>Node14&#45;&gt;Node9</title>
<g id="a_edge4"><a xlink:title=" ">
<path fill="none" stroke="#8b1a1a" d="M286.72,-67.59C296.71,-54.36 308.46,-38.8 316.55,-28.08"/>
<polygon fill="#8b1a1a" stroke="#8b1a1a" points="283.97,-65.41 280.74,-75.5 289.56,-69.63 283.97,-65.41"/>
</a>
</g>
</g>
<!-- Node15 -->
<g id="Node000015" class="node">
<title>Node15</title>
<g id="a_Node000015"><a xlink:title=" ">
<ellipse fill="#e0e0e0" stroke="#999999" cx="385.32" cy="-94.28" rx="57.98" ry="14.14"/>
<text text-anchor="middle" x="385.32" y="-90.78" font-family="Helvetica,sans-Serif" font-size="10.00">Undocumented</text>
</a>
</g>
</g>
<!-- Node15&#45;&gt;Node9 -->
<g id="edge5" class="edge">
<title>Node15&#45;&gt;Node9</title>
<g id="a_edge5"><a xlink:title=" ">
<path fill="none" stroke="#63b8ff" d="M368.57,-71.11C358.11,-57.25 345,-39.88 336.18,-28.2"/>
<polygon fill="#63b8ff" stroke="#63b8ff" points="365.58,-72.95 374.39,-78.82 371.16,-68.73 365.58,-72.95"/>
</a>
</g>
</g>
<!-- Node16 -->
<g id="node7" class="node">
<title>Node16</title>
<g id="a_node7"><a xlink:title=" ">
<ellipse fill="white" stroke="#666666" cx="504.32" cy="-94.28" rx="42.54" ry="18"/>
<text text-anchor="middle" x="504.32" y="-90.78" font-family="Helvetica,sans-Serif" font-size="10.00">Templ&lt; int &gt;</text>
</a>
</g>
</g>
<!-- Node16&#45;&gt;Node9 -->
<g id="edge6" class="edge">
<title>Node16&#45;&gt;Node9</title>
<g id="a_edge6"><a xlink:title=" ">
<path fill="none" stroke="#63b8ff" d="M465.33,-76.17C430.12,-60.71 379.45,-38.47 350,-25.54"/>
<polygon fill="#63b8ff" stroke="#63b8ff" points="463.77,-79.31 474.33,-80.12 466.58,-72.9 463.77,-79.31"/>
</a>
</g>
</g>
<!-- Node17 -->
<g id="node8" class="node">
<title>Node17</title>
<g id="a_node8"><a xlink:title=" ">
<ellipse fill="white" stroke="#666666" cx="504.32" cy="-178.28" rx="39.39" ry="18"/>
<text text-anchor="middle" x="504.32" y="-174.78" font-family="Helvetica,sans-Serif" font-size="10.00">Templ&lt; T &gt;</text>
</a>
</g>
</g>
<!-- Node17&#45;&gt;Node16 -->
<g id="edge7" class="edge">
<title>Node17&#45;&gt;Node16</title>
<g id="a_edge7"><a xlink:title=" ">
<path fill="none" stroke="orange" stroke-dasharray="5,2" d="M504.32,-148.6C504.32,-136.61 504.32,-123.08 504.32,-112.65"/>
<polygon fill="orange" stroke="orange" points="500.82,-148.38 504.32,-158.38 507.82,-148.38 500.82,-148.38"/>
</a>
</g>
<text text-anchor="middle" x="518.57" y="-132.78" font-family="Helvetica,sans-Serif" font-size="10.00" fill="grey">&lt; int &gt;</text>
</g>
<!-- Node18 -->
<g id="node9" class="node">
<title>Node18</title>
<g id="a_node9"><a xlink:title=" ">
<ellipse fill="white" stroke="#666666" cx="592.32" cy="-94.28" rx="27" ry="18"/>
<text text-anchor="middle" x="592.32" y="-90.78" font-family="Helvetica,sans-Serif" font-size="10.00">Used</text>
</a>
</g>
</g>
<!-- Node18&#45;&gt;Node9 -->
<g id="edge8" class="edge">
<title>Node18&#45;&gt;Node9</title>
<g id="a_edge8"><a xlink:title=" ">
<path fill="none" stroke="#9a32cd" stroke-dasharray="5,2" d="M560.99,-78.09C559.42,-77.45 557.86,-76.85 556.32,-76.28 487.63,-51.17 403.97,-31.56 358.88,-21.84"/>
<polygon fill="#9a32cd" stroke="#9a32cd" points="559.31,-81.17 569.88,-81.96 562.11,-74.76 559.31,-81.17"/>
</a>
</g>
<text text-anchor="middle" x="530.57" y="-48.78" font-family="Helvetica,sans-Serif" font-size="10.00" fill="grey">m_usedClass</text>
</g>
</g>
</svg>
